<?xml version="1.0" encoding="UTF-8"?>
<!DOCTYPE svg PUBLIC "-//W3C//DTD SVG 1.1//EN" "http://www.w3.org/Graphics/SVG/1.1/DTD/svg11.dtd">
<!-- Creator: CorelDRAW X7 -->
<svg xmlns="http://www.w3.org/2000/svg" xml:space="preserve" width="14.406in" height="7.5152in" version="1.1" style="shape-rendering:geometricPrecision; text-rendering:geometricPrecision; image-rendering:optimizeQuality; fill-rule:evenodd; clip-rule:evenodd"
viewBox="0 0 3838 2002"
 xmlns:xlink="http://www.w3.org/1999/xlink">
 <defs>
  <style type="text/css">
   <![CDATA[
    .str0 {stroke:#EBEBFF;stroke-width:2.77554}
    .str1 {stroke:#FEFEFE;stroke-width:1.85036}
    .fil3 {fill:#FEFEFE}
    .fil0 {fill:#6070FF}
    .fil1 {fill:#EBEBFF}
    .fil2 {fill:white}
   ]]>
  </style>
 </defs>
 <g id="Layer_x0020_1">
  <metadata id="CorelCorpID_0Corel-Layer"/>
  <g id="_2376417298128">
   <g>
    <g>
     <path class="fil0" d="M3838 361c-24,-43 -57,-79 -98,-106 -41,-27 -87,-44 -135,-50 -49,-6 -98,0 -144,16 -46,17 -87,44 -120,80 -34,36 -58,78 -72,125 -14,47 -16,97 -7,145 9,48 29,93 59,132 29,38 68,69 112,91l58 -121c-25,-12 -47,-30 -64,-52 -17,-22 -29,-48 -34,-75 -5,-27 -3,-55 4,-82 8,-27 22,-51 41,-72 19,-20 43,-35 69,-45 26,-9 54,-13 82,-9 27,3 54,13 77,28 23,16 42,36 56,61l116 -66z"/>
     <path class="fil1" d="M682 1959c6,-8 11,-17 13,-27 2,-9 2,-20 0,-29 -3,-10 -7,-19 -14,-27 -6,-7 -14,-13 -24,-17 -9,-4 -19,-6 -29,-5 -10,1 -20,4 -28,9 -9,5 -16,12 -21,21 -6,8 -9,18 -10,28l28 3c0,-6 2,-12 5,-16 3,-5 7,-9 12,-12 5,-3 10,-5 16,-6 6,0 12,1 17,3 5,2 10,6 13,10 4,4 7,10 8,15 2,6 2,11 0,17 -1,6 -4,11 -7,15l21 18z"/>
     <rect class="fil1" transform="matrix(0.866025 -0.5 0.5 0.866025 3084.53 283.087)" width="566" height="130"/>
     <rect class="fil1" transform="matrix(0.91817 0.396186 -0.396186 0.91817 1933.98 1751.25)" width="447.963" height="80.1381"/>
     <rect class="fil0" transform="matrix(0.9774 -0.211395 -0.211395 -0.9774 1828 395.689)" width="155.454" height="27.8099"/>
     <rect class="fil1" transform="matrix(0.692879 -0.721053 0.721053 0.692879 -0.000184126 277.323)" width="301.596" height="53.9541"/>
     <circle class="fil0" cx="2298" cy="1839" r="65"/>
     <circle class="fil1" cx="1901" cy="415" r="32"/>
     <circle class="fil2 str0" cx="3266" cy="1561" r="103"/>
     <circle class="fil2 str0" cx="2636" cy="148" r="53"/>
     <circle class="fil2 str0" cx="977" cy="148" r="19"/>
     <circle class="fil2 str0" cx="138" cy="1123" r="31"/>
     <path class="fil0" d="M129 203c-12,27 -12,58 -1,85 11,28 32,50 60,61 27,12 58,12 85,1 28,-11 50,-32 61,-59l-205 -88z"/>
     <path class="fil0" d="M612 1804c-1,14 4,27 13,37 9,10 21,17 35,18 13,0 27,-4 37,-13 10,-9 16,-21 17,-35l-102 -7z"/>
    </g>
    <rect class="fil3 str1" x="373" y="1614" width="508" height="341"/>
    <rect class="fil3 str1" x="1773" y="1556" width="711" height="435"/>
   </g>
   <rect class="fil3 str1" x="1730" y="272" width="334" height="203"/>
  </g>
 </g>
</svg>
